<svg width="400" height="206" viewBox="0 0 400 206" fill="none" xmlns="http://www.w3.org/2000/svg">
<g clip-path="url(#clip0_677_14402)">
<rect width="200" height="200" transform="matrix(-1 0 0 1 200 -97)" fill="#7300B5"/>
<rect width="200" height="100" transform="matrix(-1 0 0 1 200 -97)" fill="#E5EAF2"/>
<path d="M100 103C44.7715 103 0 56.4376 0 -1L200 -1C200 56.4376 155.228 103 100 103Z" fill="#560097"/>
<rect x="400" y="103" width="200" height="200" transform="rotate(180 400 103)" fill="#7300B5"/>
<path d="M300 3C244.772 3 200 47.7715 200 103L400 103C400 47.7715 355.228 3 300 3Z" fill="#D960F1"/>
<rect width="200" height="200" transform="matrix(-1 0 0 1 200 103)" fill="#7300B5"/>
<path d="M-1.52588e-05 303C-1.52588e-05 276.736 5.17313 250.728 15.2241 226.463C25.275 202.198 40.0069 180.15 58.5786 161.579C77.1503 143.007 99.1982 128.275 123.463 118.224C147.728 108.173 173.736 103 200 103L200 303H-1.52588e-05Z" fill="#D960F1"/>
<rect x="400" y="303" width="200" height="200" transform="rotate(180 400 303)" fill="#D960F1"/>
<path d="M400 303C400 276.736 394.827 250.728 384.776 226.463C374.725 202.198 359.993 180.15 341.421 161.579C322.85 143.007 300.802 128.275 276.537 118.224C252.272 108.173 226.264 103 200 103L200 303H400Z" fill="#D960F1"/>
</g>
<defs>
<clipPath id="clip0_677_14402">
<rect width="400" height="206" fill="white"/>
</clipPath>
</defs>
</svg>
