<svg width="25" height="24" viewBox="0 0 25 24" fill="none" xmlns="http://www.w3.org/2000/svg">
<path d="M12.2031 5.616C12.2331 4.711 12.4811 3.379 13.3481 2.504C14.1531 1.691 15.1331 1.295 15.7431 1.114C15.7968 1.09718 15.8538 1.09368 15.9092 1.1038C15.9645 1.11393 16.0166 1.13738 16.0609 1.17212C16.1052 1.20687 16.1404 1.25187 16.1634 1.30324C16.1864 1.35461 16.1966 1.41082 16.1931 1.467C16.1531 2.333 15.9251 3.625 15.3371 4.317C14.7831 4.969 13.8931 5.833 12.5881 5.979C12.5381 5.98441 12.4875 5.97891 12.4398 5.96289C12.3921 5.94688 12.3485 5.92072 12.3119 5.88622C12.2753 5.85172 12.2466 5.8097 12.2278 5.76305C12.2091 5.7164 12.2006 5.66623 12.2031 5.616Z" fill="black"/>
<path d="M14.437 22.1699C15.064 22.4099 15.697 22.6519 16.27 22.6519C17.497 22.6519 21.0679 19.8219 21.1959 16.8839C21.1971 16.8098 21.1775 16.7369 21.1396 16.6733C21.1016 16.6098 21.0467 16.558 20.981 16.5239C20.073 16.0159 18.589 14.7499 18.538 12.9089C18.478 10.7629 19.555 9.05886 20.37 8.35386C20.554 8.19486 20.6169 7.91486 20.4529 7.73686C19.7109 6.92686 18.219 5.81186 16.857 5.83886C15.867 5.85886 14.974 6.22886 14.207 6.54486C13.62 6.78786 13.107 6.99986 12.681 6.99986C12.278 6.99986 11.794 6.78986 11.238 6.54686C10.49 6.22086 9.61195 5.83886 8.62795 5.83886C6.80395 5.83886 3.19995 7.35186 3.19995 13.1909C3.19995 16.2859 6.39495 22.7339 9.09195 22.6519C9.67395 22.6519 10.296 22.4119 10.914 22.1719C11.522 21.9359 12.125 21.7019 12.681 21.7019C13.218 21.7019 13.824 21.9349 14.437 22.1699Z" fill="black"/>
</svg>
