<svg width="65" height="19" viewBox="0 0 65 19" fill="none" xmlns="http://www.w3.org/2000/svg">
<path d="M7.844 18.168C7.444 18.168 7.132 18.056 6.908 17.832C6.7 17.608 6.596 17.296 6.596 16.896V3.168H1.508C1.172 3.168 0.908 3.08 0.716 2.904C0.524 2.712 0.428 2.448 0.428 2.112C0.428 1.776 0.524 1.52 0.716 1.344C0.908 1.168 1.172 1.08 1.508 1.08H14.156C14.508 1.08 14.78 1.168 14.972 1.344C15.164 1.52 15.26 1.776 15.26 2.112C15.26 2.448 15.164 2.712 14.972 2.904C14.78 3.08 14.508 3.168 14.156 3.168H9.068V16.896C9.068 17.296 8.964 17.608 8.756 17.832C8.564 18.056 8.26 18.168 7.844 18.168ZM19.0134 18.168C18.6294 18.168 18.3334 18.064 18.1254 17.856C17.9174 17.632 17.8134 17.328 17.8134 16.944V2.136C17.8134 1.736 17.9174 1.432 18.1254 1.224C18.3334 1.016 18.6294 0.912 19.0134 0.912C19.3974 0.912 19.6934 1.016 19.9014 1.224C20.1254 1.432 20.2374 1.736 20.2374 2.136V8.784H19.9014C20.2534 7.888 20.8054 7.216 21.5574 6.768C22.3094 6.304 23.1734 6.072 24.1494 6.072C25.0774 6.072 25.8454 6.248 26.4534 6.6C27.0774 6.936 27.5414 7.456 27.8454 8.16C28.1494 8.848 28.3014 9.72 28.3014 10.776V16.944C28.3014 17.328 28.1974 17.632 27.9894 17.856C27.7814 18.064 27.4854 18.168 27.1014 18.168C26.7014 18.168 26.3974 18.064 26.1894 17.856C25.9814 17.632 25.8774 17.328 25.8774 16.944V10.92C25.8774 9.912 25.6774 9.176 25.2774 8.712C24.8934 8.248 24.2854 8.016 23.4534 8.016C22.4774 8.016 21.6934 8.32 21.1014 8.928C20.5254 9.536 20.2374 10.352 20.2374 11.376V16.944C20.2374 17.76 19.8294 18.168 19.0134 18.168ZM47.2561 18.168C46.8561 18.168 46.5521 18.064 46.3441 17.856C46.1361 17.632 46.0321 17.328 46.0321 16.944V7.344C46.0321 6.944 46.1361 6.64 46.3441 6.432C46.5521 6.224 46.8401 6.12 47.2081 6.12C47.5921 6.12 47.8801 6.224 48.0721 6.432C48.2801 6.64 48.3841 6.944 48.3841 7.344V9.096H48.1441C48.4001 8.136 48.8721 7.408 49.5601 6.912C50.2481 6.416 51.1281 6.128 52.2001 6.048C52.4881 6.032 52.7121 6.104 52.8721 6.264C53.0481 6.424 53.1441 6.672 53.1601 7.008C53.1921 7.344 53.1201 7.616 52.9441 7.824C52.7681 8.016 52.4961 8.128 52.1281 8.16L51.6721 8.208C50.6321 8.304 49.8401 8.632 49.2961 9.192C48.7521 9.752 48.4801 10.52 48.4801 11.496V16.944C48.4801 17.328 48.3761 17.632 48.1681 17.856C47.9761 18.064 47.6721 18.168 47.2561 18.168ZM58.6121 18.216C57.7961 18.216 57.0601 18.056 56.4041 17.736C55.7641 17.416 55.2601 16.984 54.8921 16.44C54.5241 15.896 54.3401 15.28 54.3401 14.592C54.3401 13.728 54.5561 13.048 54.9881 12.552C55.4361 12.04 56.1641 11.68 57.1721 11.472C58.1961 11.248 59.5721 11.136 61.3001 11.136H62.4281V12.624H61.3241C60.1721 12.624 59.2601 12.68 58.5881 12.792C57.9161 12.904 57.4361 13.096 57.1481 13.368C56.8761 13.624 56.7401 13.984 56.7401 14.448C56.7401 15.056 56.9481 15.552 57.3641 15.936C57.7801 16.304 58.3561 16.488 59.0921 16.488C59.6841 16.488 60.2041 16.352 60.6521 16.08C61.1001 15.792 61.4521 15.408 61.7081 14.928C61.9801 14.448 62.1161 13.896 62.1161 13.272V10.512C62.1161 9.6 61.9241 8.944 61.5401 8.544C61.1561 8.144 60.5241 7.944 59.6441 7.944C59.1321 7.944 58.5961 8.008 58.0361 8.136C57.4921 8.264 56.9241 8.48 56.3321 8.784C56.0601 8.912 55.8281 8.952 55.6361 8.904C55.4441 8.856 55.2921 8.752 55.1801 8.592C55.0681 8.416 55.0041 8.232 54.9881 8.04C54.9881 7.832 55.0361 7.632 55.1321 7.44C55.2441 7.248 55.4281 7.104 55.6841 7.008C56.3881 6.672 57.0841 6.432 57.7721 6.288C58.4601 6.144 59.1081 6.072 59.7161 6.072C60.7881 6.072 61.6681 6.24 62.3561 6.576C63.0601 6.912 63.5801 7.424 63.9161 8.112C64.2521 8.8 64.4201 9.688 64.4201 10.776V16.944C64.4201 17.328 64.3241 17.632 64.1321 17.856C63.9401 18.064 63.6601 18.168 63.2921 18.168C62.9401 18.168 62.6601 18.064 62.4521 17.856C62.2441 17.632 62.1401 17.328 62.1401 16.944V15.384H62.3561C62.2281 15.976 61.9881 16.488 61.6361 16.92C61.3001 17.336 60.8761 17.656 60.3641 17.88C59.8521 18.104 59.2681 18.216 58.6121 18.216Z" fill="black"/>
<path d="M36.8735 18.216C35.9775 18.216 35.0655 18.096 34.1375 17.856C33.2095 17.6 32.4015 17.224 31.7135 16.728C31.4575 16.568 31.2815 16.376 31.1855 16.152C31.1055 15.912 31.0895 15.696 31.1375 15.504C31.1855 15.296 31.2815 15.12 31.4255 14.976C31.5855 14.832 31.7775 14.752 32.0015 14.736C32.2255 14.704 32.4735 14.768 32.7455 14.928C33.4335 15.344 34.1055 15.648 34.7615 15.84C35.4175 16.016 36.0975 16.104 36.8015 16.104C37.5695 16.104 38.2175 15.992 38.7455 15.768C39.2735 15.544 39.6655 15.216 39.9215 14.784C40.1935 14.352 40.3295 13.832 40.3295 13.224C40.3295 12.312 40.0255 11.632 39.4175 11.184C38.8255 10.72 37.9615 10.488 36.8255 10.488H35.1935C34.8255 10.488 34.5455 10.4 34.3535 10.224C34.1615 10.032 34.0655 9.768 34.0655 9.432C34.0655 9.112 34.1615 8.864 34.3535 8.688C34.5455 8.496 34.8255 8.4 35.1935 8.4H36.5855C37.2735 8.4 37.8575 8.288 38.3375 8.064C38.8175 7.824 39.1855 7.496 39.4415 7.08C39.7135 6.648 39.8495 6.128 39.8495 5.52C39.8495 4.704 39.5775 4.08 39.0335 3.648C38.5055 3.2 37.7295 2.976 36.7055 2.976C36.0495 2.976 35.4255 3.064 34.8335 3.24C34.2575 3.416 33.6575 3.728 33.0335 4.176C32.7935 4.336 32.5615 4.408 32.3375 4.392C32.1295 4.36 31.9455 4.28 31.7855 4.152C31.6415 4.008 31.5375 3.832 31.4735 3.624C31.4255 3.416 31.4415 3.2 31.5215 2.976C31.6015 2.752 31.7615 2.56 32.0015 2.4C32.6735 1.904 33.4335 1.528 34.2815 1.272C35.1295 0.999999 36.0015 0.863999 36.8975 0.863999C38.0175 0.863999 38.9775 1.04 39.7775 1.392C40.5935 1.744 41.2095 2.248 41.6255 2.904C42.0575 3.56 42.2735 4.344 42.2735 5.256C42.2735 5.944 42.1455 6.568 41.8895 7.128C41.6335 7.688 41.2655 8.168 40.7855 8.568C40.3215 8.952 39.7535 9.224 39.0815 9.384V9.12C40.2495 9.312 41.1535 9.792 41.7935 10.56C42.4335 11.312 42.7535 12.256 42.7535 13.392C42.7535 14.384 42.5135 15.248 42.0335 15.984C41.5695 16.704 40.8975 17.256 40.0175 17.64C39.1375 18.024 38.0895 18.216 36.8735 18.216Z" fill="url(#paint0_linear_370_1607)"/>
<defs>
<linearGradient id="paint0_linear_370_1607" x1="33.5" y1="-6" x2="33.5" y2="26" gradientUnits="userSpaceOnUse">
<stop stop-color="#9501D4"/>
<stop offset="1" stop-color="#D486F5"/>
</linearGradient>
</defs>
</svg>
