<svg width="161" height="161" viewBox="0 0 161 161" fill="none" xmlns="http://www.w3.org/2000/svg">
<path fill-rule="evenodd" clip-rule="evenodd" d="M140.5 80.3915C140.5 113.529 113.637 140.391 80.5 140.391C47.3629 140.391 20.5 113.529 20.5 80.3915C20.5 47.2544 47.3629 20.3915 80.5 20.3915C113.637 20.3915 140.5 47.2544 140.5 80.3915ZM80.5 50.7248C82.1569 50.7248 83.5 52.068 83.5 53.7248V73.7248C83.5 75.3817 82.1569 76.7248 80.5 76.7248C78.8431 76.7248 77.5 75.3817 77.5 73.7248V53.7248C77.5 52.068 78.8431 50.7248 80.5 50.7248ZM83.5 93.7248C83.5 92.068 82.1569 90.7248 80.5 90.7248C78.8431 90.7248 77.5 92.068 77.5 93.7248V100.391C77.5 102.048 78.8431 103.391 80.5 103.391C82.1569 103.391 83.5 102.048 83.5 100.391V93.7248Z" fill="#9400D3"/>
</svg>
