<svg width="25" height="24" viewBox="0 0 25 24" fill="none" xmlns="http://www.w3.org/2000/svg">
<path fill-rule="evenodd" clip-rule="evenodd" d="M7.2998 2C5.64295 2 4.2998 3.34315 4.2998 5V19C4.2998 20.6569 5.64295 22 7.2998 22H19.2998H20.2998V21V17V16V3V2H19.2998H7.2998ZM18.2998 16V4H7.2998C6.74752 4 6.2998 4.44772 6.2998 5V16.1707C6.61258 16.0602 6.94917 16 7.2998 16H18.2998ZM6.2998 19C6.2998 19.5523 6.74752 20 7.2998 20H18.2998V18H7.2998C6.74752 18 6.2998 18.4477 6.2998 19Z" fill="#888D92"/>
</svg>
