<svg width="25" height="24" viewBox="0 0 25 24" fill="none" xmlns="http://www.w3.org/2000/svg">
<path fill-rule="evenodd" clip-rule="evenodd" d="M6.5 5C5.39543 5 4.5 5.89543 4.5 7V15C4.5 16.1046 5.39543 17 6.5 17H8.67157C9.20201 17 9.71071 17.2107 10.0858 17.5858L11.7929 19.2929C12.1834 19.6834 12.8166 19.6834 13.2071 19.2929L15.2071 17.2929C15.3946 17.1054 15.649 17 15.9142 17H18.5C19.6046 17 20.5 16.1046 20.5 15V7C20.5 5.89543 19.6046 5 18.5 5H6.5ZM9.5 10C8.94772 10 8.5 10.4477 8.5 11C8.5 11.5523 8.94772 12 9.5 12L15.5 12C16.0523 12 16.5 11.5523 16.5 11C16.5 10.4477 16.0523 10 15.5 10L9.5 10Z" fill="white"/>
</svg>
