<svg width="32" height="32" viewBox="0 0 32 32" fill="none" xmlns="http://www.w3.org/2000/svg">
<path fill-rule="evenodd" clip-rule="evenodd" d="M20.6261 22.0404C21.0166 22.4309 21.6498 22.4309 22.0403 22.0404C22.4308 21.6499 22.4308 21.0167 22.0403 20.6262L17.4141 16L22.0403 11.3737C22.4308 10.9832 22.4308 10.35 22.0403 9.95952C21.6498 9.569 21.0166 9.569 20.6261 9.95952L15.9998 14.5857L11.3736 9.95952C10.9831 9.569 10.3499 9.56899 9.9594 9.95952C9.56887 10.35 9.56887 10.9832 9.9594 11.3737L14.5856 16L9.9594 20.6262C9.56887 21.0167 9.56887 21.6499 9.9594 22.0404C10.3499 22.4309 10.9831 22.4309 11.3736 22.0404L15.9998 17.4142L20.6261 22.0404Z" fill="black"/>
</svg>
