<svg width="25" height="24" viewBox="0 0 25 24" fill="none" xmlns="http://www.w3.org/2000/svg">
<path fill-rule="evenodd" clip-rule="evenodd" d="M12.2414 4.90514C12.6184 4.57524 13.1814 4.57524 13.5584 4.90514L19.5584 10.1551C19.7754 10.345 19.8999 10.6194 19.8999 10.9077V19.0002C19.8999 19.5525 19.4522 20.0002 18.8999 20.0002H6.8999C6.34762 20.0002 5.8999 19.5525 5.8999 19.0002V10.9077C5.8999 10.6194 6.02438 10.345 6.2414 10.1551L12.2414 4.90514ZM14.8754 3.39999C13.7443 2.41029 12.0555 2.41029 10.9244 3.39998L4.92439 8.64999C4.27334 9.21965 3.8999 10.0426 3.8999 10.9077V19.0002C3.8999 20.657 5.24305 22.0002 6.8999 22.0002H18.8999C20.5568 22.0002 21.8999 20.657 21.8999 19.0002V10.9077C21.8999 10.0426 21.5265 9.21965 20.8754 8.64999L14.8754 3.39999ZM8.8999 16.0001C8.34762 16.0001 7.8999 16.4478 7.8999 17.0001C7.8999 17.5524 8.34762 18.0001 8.8999 18.0001H16.8999C17.4522 18.0001 17.8999 17.5524 17.8999 17.0001C17.8999 16.4478 17.4522 16.0001 16.8999 16.0001H8.8999Z" fill="#888D92"/>
</svg>
