<svg width="25" height="24" viewBox="0 0 25 24" fill="none" xmlns="http://www.w3.org/2000/svg">
<path fill-rule="evenodd" clip-rule="evenodd" d="M21.5 12C21.5 16.9706 17.4706 21 12.5 21C7.52944 21 3.5 16.9706 3.5 12C3.5 7.02944 7.52944 3 12.5 3C17.4706 3 21.5 7.02944 21.5 12ZM12.5 17C11.9477 17 11.5 16.5523 11.5 16V12C11.5 11.4477 11.9477 11 12.5 11C13.0523 11 13.5 11.4477 13.5 12V16C13.5 16.5523 13.0523 17 12.5 17ZM11.5 9C11.5 9.55228 11.9477 10 12.5 10C13.0523 10 13.5 9.55228 13.5 9V8C13.5 7.44772 13.0523 7 12.5 7C11.9477 7 11.5 7.44772 11.5 8V9Z" fill="#F04438"/>
</svg>
