<svg width="393" height="198" viewBox="0 0 393 198" fill="none" xmlns="http://www.w3.org/2000/svg">
<circle cx="68.5558" cy="40.3202" r="17.3119" stroke="white" stroke-width="5"/>
<circle cx="140.18" cy="40.3202" r="17.3119" stroke="white" stroke-width="5"/>
<circle cx="211.803" cy="40.3202" r="17.3119" stroke="white" stroke-width="5"/>
<circle cx="303.936" cy="40.3204" r="40.3204" fill="white"/>
<circle cx="303.936" cy="40.3204" r="40.3204" fill="url(#paint0_radial_372_9166)" style="mix-blend-mode:darken"/>
<path d="M94.7666 171.313C93.1666 171.313 91.9186 170.865 91.0226 169.969C90.1906 169.073 89.7746 167.825 89.7746 166.225V111.313H69.4226C68.0786 111.313 67.0226 110.961 66.2546 110.257C65.4866 109.489 65.1026 108.433 65.1026 107.089C65.1026 105.745 65.4866 104.721 66.2546 104.017C67.0226 103.313 68.0786 102.961 69.4226 102.961H120.015C121.423 102.961 122.511 103.313 123.279 104.017C124.047 104.721 124.431 105.745 124.431 107.089C124.431 108.433 124.047 109.489 123.279 110.257C122.511 110.961 121.423 111.313 120.015 111.313H99.6626V166.225C99.6626 167.825 99.2466 169.073 98.4146 169.969C97.6466 170.865 96.4306 171.313 94.7666 171.313ZM139.444 171.313C137.908 171.313 136.724 170.897 135.892 170.065C135.06 169.169 134.644 167.953 134.644 166.417V107.185C134.644 105.585 135.06 104.369 135.892 103.537C136.724 102.705 137.908 102.289 139.444 102.289C140.98 102.289 142.164 102.705 142.996 103.537C143.892 104.369 144.34 105.585 144.34 107.185V133.777H142.996C144.404 130.193 146.612 127.505 149.62 125.713C152.628 123.857 156.084 122.929 159.988 122.929C163.7 122.929 166.772 123.633 169.204 125.041C171.7 126.385 173.556 128.465 174.772 131.281C175.988 134.033 176.596 137.521 176.596 141.745V166.417C176.596 167.953 176.18 169.169 175.348 170.065C174.516 170.897 173.332 171.313 171.796 171.313C170.196 171.313 168.98 170.897 168.148 170.065C167.316 169.169 166.9 167.953 166.9 166.417V142.321C166.9 138.289 166.1 135.345 164.5 133.489C162.964 131.633 160.532 130.705 157.204 130.705C153.3 130.705 150.164 131.921 147.796 134.353C145.492 136.785 144.34 140.049 144.34 144.145V166.417C144.34 169.681 142.708 171.313 139.444 171.313ZM252.415 171.313C250.815 171.313 249.599 170.897 248.767 170.065C247.935 169.169 247.519 167.953 247.519 166.417V128.017C247.519 126.417 247.935 125.201 248.767 124.369C249.599 123.537 250.751 123.121 252.223 123.121C253.759 123.121 254.911 123.537 255.679 124.369C256.511 125.201 256.927 126.417 256.927 128.017V135.025H255.967C256.991 131.185 258.879 128.273 261.631 126.289C264.383 124.305 267.903 123.153 272.191 122.833C273.343 122.769 274.239 123.057 274.879 123.697C275.583 124.337 275.967 125.329 276.031 126.673C276.159 128.017 275.871 129.105 275.167 129.937C274.463 130.705 273.375 131.153 271.903 131.281L270.079 131.473C265.919 131.857 262.751 133.169 260.575 135.409C258.399 137.649 257.311 140.721 257.311 144.625V166.417C257.311 167.953 256.895 169.169 256.063 170.065C255.295 170.897 254.079 171.313 252.415 171.313ZM297.839 171.505C294.575 171.505 291.631 170.865 289.007 169.585C286.447 168.305 284.431 166.577 282.959 164.401C281.487 162.225 280.751 159.761 280.751 157.009C280.751 153.553 281.615 150.833 283.343 148.849C285.135 146.801 288.047 145.361 292.079 144.529C296.175 143.633 301.679 143.185 308.591 143.185H313.103V149.137H308.687C304.079 149.137 300.431 149.361 297.743 149.809C295.055 150.257 293.135 151.025 291.983 152.113C290.895 153.137 290.351 154.577 290.351 156.433C290.351 158.865 291.183 160.849 292.847 162.385C294.511 163.857 296.815 164.593 299.759 164.593C302.127 164.593 304.207 164.049 305.999 162.961C307.791 161.809 309.199 160.273 310.223 158.353C311.311 156.433 311.855 154.225 311.855 151.729V140.689C311.855 137.041 311.087 134.417 309.551 132.817C308.015 131.217 305.487 130.417 301.967 130.417C299.919 130.417 297.775 130.673 295.535 131.185C293.359 131.697 291.087 132.561 288.719 133.777C287.631 134.289 286.703 134.449 285.935 134.257C285.167 134.065 284.559 133.649 284.111 133.009C283.663 132.305 283.407 131.569 283.343 130.801C283.343 129.969 283.535 129.169 283.919 128.401C284.367 127.633 285.103 127.057 286.127 126.673C288.943 125.329 291.727 124.369 294.479 123.793C297.231 123.217 299.823 122.929 302.255 122.929C306.543 122.929 310.063 123.601 312.815 124.945C315.631 126.289 317.711 128.337 319.055 131.089C320.399 133.841 321.071 137.393 321.071 141.745V166.417C321.071 167.953 320.687 169.169 319.919 170.065C319.151 170.897 318.031 171.313 316.559 171.313C315.151 171.313 314.031 170.897 313.199 170.065C312.367 169.169 311.951 167.953 311.951 166.417V160.177H312.815C312.303 162.545 311.343 164.593 309.935 166.321C308.591 167.985 306.895 169.265 304.847 170.161C302.799 171.057 300.463 171.505 297.839 171.505Z" fill="white"/>
<path d="M210.885 171.505C207.301 171.505 203.653 171.025 199.941 170.065C196.229 169.041 192.997 167.537 190.245 165.553C189.221 164.913 188.517 164.145 188.133 163.249C187.813 162.289 187.749 161.425 187.941 160.657C188.133 159.825 188.517 159.121 189.093 158.545C189.733 157.969 190.501 157.649 191.397 157.585C192.293 157.457 193.285 157.713 194.373 158.353C197.125 160.017 199.813 161.233 202.437 162.001C205.061 162.705 207.781 163.057 210.597 163.057C213.669 163.057 216.261 162.609 218.373 161.713C220.485 160.817 222.053 159.505 223.077 157.777C224.165 156.049 224.709 153.969 224.709 151.537C224.709 147.889 223.493 145.169 221.061 143.377C218.693 141.521 215.237 140.593 210.693 140.593H204.165C202.693 140.593 201.573 140.241 200.805 139.537C200.037 138.769 199.653 137.713 199.653 136.369C199.653 135.089 200.037 134.097 200.805 133.393C201.573 132.625 202.693 132.241 204.165 132.241H209.733C212.485 132.241 214.821 131.793 216.741 130.897C218.661 129.937 220.133 128.625 221.157 126.961C222.245 125.233 222.789 123.153 222.789 120.721C222.789 117.457 221.701 114.961 219.525 113.233C217.413 111.441 214.309 110.545 210.213 110.545C207.589 110.545 205.093 110.897 202.725 111.601C200.421 112.305 198.021 113.553 195.525 115.345C194.565 115.985 193.637 116.273 192.741 116.209C191.909 116.081 191.173 115.761 190.533 115.249C189.957 114.673 189.541 113.969 189.285 113.137C189.093 112.305 189.157 111.441 189.477 110.545C189.797 109.649 190.437 108.881 191.397 108.241C194.085 106.257 197.125 104.753 200.517 103.729C203.909 102.641 207.397 102.097 210.981 102.097C215.461 102.097 219.301 102.801 222.501 104.209C225.765 105.617 228.229 107.633 229.893 110.257C231.621 112.881 232.485 116.017 232.485 119.665C232.485 122.417 231.973 124.913 230.949 127.153C229.925 129.393 228.453 131.313 226.533 132.913C224.677 134.449 222.405 135.537 219.717 136.177V135.121C224.389 135.889 228.005 137.809 230.565 140.881C233.125 143.889 234.405 147.665 234.405 152.209C234.405 156.177 233.445 159.633 231.525 162.577C229.669 165.457 226.981 167.665 223.461 169.201C219.941 170.737 215.749 171.505 210.885 171.505Z" fill="url(#paint1_linear_372_9166)"/>
<defs>
<radialGradient id="paint0_radial_372_9166" cx="0" cy="0" r="1" gradientUnits="userSpaceOnUse" gradientTransform="translate(303.936 40.3204) rotate(90) scale(34.4714)">
<stop offset="0.236111" stop-color="#AA00F3"/>
<stop offset="1" stop-color="#D267FF"/>
</radialGradient>
<linearGradient id="paint1_linear_372_9166" x1="196.5" y1="80.6406" x2="196.5" y2="197.933" gradientUnits="userSpaceOnUse">
<stop stop-color="#9400D3"/>
<stop offset="1" stop-color="#D486F5"/>
</linearGradient>
</defs>
</svg>
