<svg width="25" height="24" viewBox="0 0 25 24" fill="none" xmlns="http://www.w3.org/2000/svg">
<path d="M15.1997 4.5C15.1997 5.16304 14.9363 5.79893 14.4675 6.26777C13.9986 6.73661 13.3627 7 12.6997 7C12.0367 7 11.4008 6.73661 10.9319 6.26777C10.4631 5.79893 10.1997 5.16304 10.1997 4.5C10.1997 3.83696 10.4631 3.20107 10.9319 2.73223C11.4008 2.26339 12.0367 2 12.6997 2C13.3627 2 13.9986 2.26339 14.4675 2.73223C14.9363 3.20107 15.1997 3.83696 15.1997 4.5Z" fill="#7300B5" stroke="#7300B5" stroke-width="1.5"/>
<path d="M21.6997 17L20.5417 16.61C20.3145 16.5335 20.0986 16.4269 19.8997 16.293L19.7987 16.224C19.4598 15.9947 19.1823 15.6856 18.9907 15.324C18.7991 14.9624 18.6991 14.5593 18.6997 14.15C18.6997 11.713 16.9557 9.63301 14.5767 9.23201L13.6867 9.08201C13.1997 9.00001 12.1997 9.00001 11.7127 9.08201L10.8217 9.23201C8.44271 9.63301 6.69971 11.713 6.69971 14.15C6.70027 14.5593 6.60036 14.9624 6.40874 15.324C6.21712 15.6856 5.93966 15.9947 5.60071 16.224L5.50071 16.293C5.30071 16.427 5.08471 16.533 4.85771 16.61L3.69971 17" stroke="#7300B5" stroke-width="1.5" stroke-linecap="round" stroke-linejoin="round"/>
<path d="M10.1997 16L9.27474 17.233C9.12774 17.429 9.05474 17.528 8.97074 17.614C8.76578 17.8283 8.51574 17.9943 8.23874 18.1C8.12674 18.143 8.00874 18.173 7.76874 18.233L5.97574 18.681C5.57739 18.7813 5.22939 19.0237 4.99719 19.3625C4.76498 19.7014 4.66456 20.1134 4.7148 20.5211C4.76504 20.9288 4.96249 21.3041 5.27001 21.5764C5.57753 21.8488 5.97395 21.9994 6.38474 22H7.06774C8.77674 22 10.4377 21.446 11.8047 20.421L12.6776 19.1546M15.1997 16L15.9267 16.969C16.2697 17.427 16.4417 17.656 16.6647 17.825C16.7317 17.875 16.8017 17.923 16.8747 17.965C17.1167 18.105 17.3947 18.174 17.9497 18.313L19.4237 18.681C19.8221 18.7813 20.1701 19.0237 20.4023 19.3625C20.6345 19.7014 20.7349 20.1134 20.6847 20.5211C20.6344 20.9288 20.437 21.3041 20.1295 21.5764C19.8219 21.8488 19.4255 21.9994 19.0147 22H18.0777C17.5147 22 17.2337 22 16.9547 21.984C16.1313 21.9379 15.3168 21.7901 14.5297 21.544C14.2627 21.461 13.9997 21.363 13.4737 21.165L11.6997 20.5" fill="#7300B5"/>
<path d="M10.1997 16L9.27474 17.233C9.12774 17.429 9.05474 17.528 8.97074 17.614C8.76578 17.8283 8.51574 17.9943 8.23874 18.1C8.12674 18.143 8.00874 18.173 7.76874 18.233L5.97574 18.681C5.57739 18.7813 5.22939 19.0237 4.99719 19.3625C4.76498 19.7014 4.66456 20.1134 4.7148 20.5211C4.76504 20.9288 4.96249 21.3041 5.27001 21.5764C5.57753 21.8488 5.97395 21.9994 6.38474 22H7.06774C8.77674 22 10.4377 21.446 11.8047 20.421L12.6776 19.1546M15.1997 16L15.9267 16.969C16.2697 17.427 16.4417 17.656 16.6647 17.825C16.7317 17.875 16.8017 17.923 16.8747 17.965C17.1167 18.105 17.3947 18.174 17.9497 18.313L19.4237 18.681C19.8221 18.7813 20.1701 19.0237 20.4023 19.3625C20.6345 19.7014 20.7349 20.1134 20.6847 20.5211C20.6344 20.9288 20.437 21.3041 20.1295 21.5764C19.8219 21.8488 19.4255 21.9994 19.0147 22H18.0777C17.5147 22 17.2337 22 16.9547 21.984C16.1313 21.9379 15.3168 21.7901 14.5297 21.544C14.2627 21.461 13.9997 21.363 13.4737 21.165L11.6997 20.5" stroke="#7300B5" stroke-width="1.5" stroke-linecap="round" stroke-linejoin="round"/>
</svg>
