<svg width="24" height="24" viewBox="0 0 24 24" fill="none" xmlns="http://www.w3.org/2000/svg">
<path fill-rule="evenodd" clip-rule="evenodd" d="M3.06774 6.48196L9.87868 13.2929C11.0503 14.4645 12.9497 14.4645 14.1213 13.2929L20.9323 6.48196C20.9764 6.64718 21 6.82084 21 7V17C21 18.1046 20.1046 19 19 19H5C3.89543 19 3 18.1046 3 17V7C3 6.82084 3.02356 6.64718 3.06774 6.48196ZM4.48196 5.06774L11.2929 11.8787C11.6834 12.2692 12.3166 12.2692 12.7071 11.8787L19.518 5.06774C19.3528 5.02356 19.1792 5 19 5H5C4.82084 5 4.64718 5.02356 4.48196 5.06774Z" fill="#161D40"/>
</svg>
