<svg width="24" height="25" viewBox="0 0 24 25" fill="none" xmlns="http://www.w3.org/2000/svg">
<path d="M14.5 5C14.5 5.66304 14.2366 6.29893 13.7678 6.76777C13.2989 7.23661 12.663 7.5 12 7.5C11.337 7.5 10.7011 7.23661 10.2322 6.76777C9.76339 6.29893 9.5 5.66304 9.5 5C9.5 4.33696 9.76339 3.70107 10.2322 3.23223C10.7011 2.76339 11.337 2.5 12 2.5C12.663 2.5 13.2989 2.76339 13.7678 3.23223C14.2366 3.70107 14.5 4.33696 14.5 5Z" stroke="white" stroke-width="1.5"/>
<path d="M21 17.5L19.842 17.11C19.6148 17.0335 19.3989 16.9269 19.2 16.793L19.099 16.724C18.7601 16.4947 18.4826 16.1856 18.291 15.824C18.0993 15.4624 17.9994 15.0593 18 14.65C18 12.213 16.256 10.133 13.877 9.73201L12.987 9.58201C12.5 9.50001 11.5 9.50001 11.013 9.58201L10.122 9.73201C7.743 10.133 6 12.213 6 14.65C6.00056 15.0593 5.90065 15.4624 5.70903 15.824C5.51741 16.1856 5.23995 16.4947 4.901 16.724L4.801 16.793C4.601 16.927 4.385 17.033 4.158 17.11L3 17.5" stroke="white" stroke-width="1.5" stroke-linecap="round" stroke-linejoin="round"/>
<path d="M9.50003 16.5L8.57503 17.733C8.42803 17.929 8.35503 18.028 8.27103 18.114C8.06607 18.3283 7.81604 18.4943 7.53903 18.6C7.42703 18.643 7.30903 18.673 7.06903 18.733L5.27603 19.181C4.87768 19.2813 4.52969 19.5237 4.29748 19.8625C4.06528 20.2014 3.96485 20.6134 4.0151 21.0211C4.06534 21.4288 4.26278 21.8041 4.5703 22.0764C4.87783 22.3488 5.27425 22.4994 5.68503 22.5H6.36803C8.07703 22.5 9.73803 21.946 11.105 20.921L13 19.5M14.5 16.5L15.227 17.469C15.57 17.927 15.742 18.156 15.965 18.325C16.032 18.375 16.102 18.423 16.175 18.465C16.417 18.605 16.695 18.674 17.25 18.813L18.724 19.181C19.1224 19.2813 19.4704 19.5237 19.7026 19.8625C19.9348 20.2014 20.0352 20.6134 19.985 21.0211C19.9347 21.4288 19.7373 21.8041 19.4298 22.0764C19.1222 22.3488 18.7258 22.4994 18.315 22.5H17.378C16.815 22.5 16.534 22.5 16.255 22.484C15.4316 22.4379 14.6171 22.2901 13.83 22.044C13.563 21.961 13.3 21.863 12.774 21.665L11 21" stroke="white" stroke-width="1.5" stroke-linecap="round" stroke-linejoin="round"/>
</svg>
