<svg width="25" height="25" viewBox="0 0 25 25" fill="none" xmlns="http://www.w3.org/2000/svg">
<path fill-rule="evenodd" clip-rule="evenodd" d="M12.5 1.89148C13.0523 1.89148 13.5 2.33919 13.5 2.89148V4.89148C13.5 5.44376 13.0523 5.89148 12.5 5.89148C11.9477 5.89148 11.5 5.44376 11.5 4.89148V2.89148C11.5 2.33919 11.9477 1.89148 12.5 1.89148ZM12.5 19.8915C13.0523 19.8915 13.5 20.3392 13.5 20.8915V22.8915C13.5 23.4438 13.0523 23.8915 12.5 23.8915C11.9477 23.8915 11.5 23.4438 11.5 22.8915V20.8915C11.5 20.3392 11.9477 19.8915 12.5 19.8915ZM22.5 13.8915C23.0523 13.8915 23.5 13.4438 23.5 12.8915C23.5 12.3392 23.0523 11.8915 22.5 11.8915H20.5C19.9477 11.8915 19.5 12.3392 19.5 12.8915C19.5 13.4438 19.9477 13.8915 20.5 13.8915H22.5ZM5.5 12.8915C5.5 13.4438 5.05228 13.8915 4.5 13.8915H2.5C1.94772 13.8915 1.5 13.4438 1.5 12.8915C1.5 12.3392 1.94772 11.8915 2.5 11.8915H4.5C5.05228 11.8915 5.5 12.3392 5.5 12.8915ZM20.2782 6.52754C20.6687 6.13702 20.6687 5.50385 20.2782 5.11333C19.8876 4.7228 19.2545 4.7228 18.8639 5.11333L17.4497 6.52754C17.0592 6.91807 17.0592 7.55123 17.4497 7.94175C17.8402 8.33228 18.4734 8.33228 18.8639 7.94175L20.2782 6.52754ZM7.55025 17.8412C7.94077 18.2318 7.94077 18.8649 7.55025 19.2554L6.13603 20.6697C5.74551 21.0602 5.11234 21.0602 4.72182 20.6697C4.3313 20.2791 4.3313 19.646 4.72182 19.2554L6.13603 17.8412C6.52656 17.4507 7.15972 17.4507 7.55025 17.8412ZM18.8639 20.6696C19.2545 21.0602 19.8876 21.0602 20.2782 20.6696C20.6687 20.2791 20.6687 19.6459 20.2782 19.2554L18.8639 17.8412C18.4734 17.4507 17.8403 17.4507 17.4497 17.8412C17.0592 18.2317 17.0592 18.8649 17.4497 19.2554L18.8639 20.6696ZM7.55025 7.94173C7.15972 8.33225 6.52656 8.33225 6.13603 7.94173L4.72182 6.52751C4.3313 6.13699 4.3313 5.50382 4.72182 5.1133C5.11234 4.72277 5.74551 4.72277 6.13603 5.1133L7.55025 6.52751C7.94077 6.91804 7.94077 7.5512 7.55025 7.94173ZM12.5 17.8915C15.2614 17.8915 17.5 15.6529 17.5 12.8915C17.5 10.1301 15.2614 7.89148 12.5 7.89148C9.73858 7.89148 7.5 10.1301 7.5 12.8915C7.5 15.6529 9.73858 17.8915 12.5 17.8915Z" fill="#9400D3"/>
</svg>
