<svg width="25" height="24" viewBox="0 0 25 24" fill="none" xmlns="http://www.w3.org/2000/svg">
<path d="M15.3244 19.3318C15.1777 19.4418 15.0641 19.5901 14.996 19.7604L14.3515 21.3714C14.1997 21.751 13.832 22 13.4231 22H10.7771C10.3682 22 10.0005 21.751 9.84865 21.3714L9.20424 19.7604C9.13613 19.5901 9.02249 19.4418 8.87576 19.3318L7.51926 18.3144C7.25674 18.1175 6.91434 18.0619 6.60303 18.1657L4.92289 18.7257C4.45077 18.8831 3.93479 18.6694 3.71223 18.2243L2.51423 15.8283C2.28055 15.3609 2.44609 14.7924 2.89416 14.5236L4.11459 13.7913C4.4158 13.6106 4.6001 13.2851 4.6001 12.9338V11.4806C4.6001 11.1768 4.46201 10.8895 4.22479 10.6998L2.73136 9.50501C2.36316 9.21045 2.25075 8.69869 2.46163 8.27693L3.71223 5.77573C3.93479 5.33062 4.45077 5.11689 4.92289 5.27426L6.70714 5.86901C6.95875 5.95288 7.23336 5.93337 7.47058 5.81476L8.72961 5.18524C8.96683 5.06663 9.14721 4.85865 9.23108 4.60704L9.87217 2.68377C10.0083 2.27543 10.3904 2 10.8209 2H13.3793C13.8098 2 14.1919 2.27543 14.328 2.68377L14.9691 4.60704C15.053 4.85865 15.2334 5.06663 15.4706 5.18524L16.7296 5.81476C16.9668 5.93337 17.2414 5.95288 17.4931 5.86901L19.2773 5.27426C19.7494 5.11689 20.2654 5.33062 20.488 5.77573L21.7386 8.27693C21.9494 8.69869 21.837 9.21045 21.4688 9.50501L19.9754 10.6998C19.7382 10.8895 19.6001 11.1768 19.6001 11.4806V12.5194C19.6001 12.8232 19.7382 13.1105 19.9754 13.3002L21.4688 14.495C21.837 14.7896 21.9494 15.3013 21.7386 15.7231L20.488 18.2243C20.2654 18.6694 19.7494 18.8831 19.2773 18.7257L17.5972 18.1657C17.2859 18.0619 16.9435 18.1175 16.6809 18.3144L15.3244 19.3318Z" stroke="#888D92" stroke-width="2"/>
<path d="M12.1001 15C13.757 15 15.1001 13.6569 15.1001 12C15.1001 10.3431 13.757 9 12.1001 9C10.4432 9 9.1001 10.3431 9.1001 12C9.1001 13.6569 10.4432 15 12.1001 15Z" fill="#888D92"/>
</svg>
