<svg width="25" height="25" viewBox="0 0 25 25" fill="none" xmlns="http://www.w3.org/2000/svg">
<path fill-rule="evenodd" clip-rule="evenodd" d="M19.375 14.3696C19.375 14.9219 19.8227 15.3696 20.375 15.3696C20.9273 15.3696 21.375 14.9219 21.375 14.3696C21.375 9.39907 17.3456 5.36963 12.375 5.36963C7.40444 5.36963 3.375 9.39907 3.375 14.3696C3.375 14.9219 3.82272 15.3696 4.375 15.3696C4.92729 15.3696 5.375 14.9219 5.375 14.3696C5.375 10.5036 8.50901 7.36963 12.375 7.36963C16.241 7.36963 19.375 10.5036 19.375 14.3696ZM10.375 13.3696C10.375 12.2651 11.2704 11.3696 12.375 11.3696C13.4796 11.3696 14.375 12.2651 14.375 13.3696C14.375 14.4742 13.4796 15.3696 12.375 15.3696C11.2704 15.3696 10.375 14.4742 10.375 13.3696ZM12.375 9.36963C10.1659 9.36963 8.375 11.1605 8.375 13.3696C8.375 15.5788 10.1659 17.3696 12.375 17.3696C14.5841 17.3696 16.375 15.5788 16.375 13.3696C16.375 11.1605 14.5841 9.36963 12.375 9.36963Z" fill="#737986"/>
</svg>
