<svg width="25" height="25" viewBox="0 0 25 25" fill="none" xmlns="http://www.w3.org/2000/svg">
<path fill-rule="evenodd" clip-rule="evenodd" d="M11.6696 3.86456C12.0303 3.4831 12.3113 3.3916 12.5 3.3916C12.6887 3.3916 12.9697 3.4831 13.3304 3.86456C13.6932 4.24813 14.0659 4.85683 14.4 5.69192C14.9813 7.14532 15.3861 9.13509 15.4794 11.3916H9.52056C9.61393 9.13509 10.0187 7.14532 10.6 5.69192C10.9341 4.85683 11.3068 4.24813 11.6696 3.86456ZM7.519 11.3916C7.61321 8.92443 8.05341 6.67336 8.7431 4.94914C8.871 4.6294 9.00959 4.32243 9.15909 4.03209C6.1385 5.24037 3.92561 8.03837 3.55493 11.3916L7.519 11.3916ZM3.55493 13.3916L7.519 13.3916C7.61321 15.8588 8.05341 18.1098 8.7431 19.8341C8.871 20.1538 9.00959 20.4608 9.15909 20.7511C6.1385 19.5428 3.92561 16.7448 3.55493 13.3916ZM9.52056 13.3916H15.4794C15.3861 15.6481 14.9813 17.6379 14.4 19.0913C14.0659 19.9264 13.6932 20.5351 13.3304 20.9186C12.9697 21.3001 12.6887 21.3916 12.5 21.3916C12.3113 21.3916 12.0303 21.3001 11.6696 20.9186C11.3068 20.5351 10.9341 19.9264 10.6 19.0913C10.0187 17.6379 9.61393 15.6481 9.52056 13.3916ZM17.481 13.3916C17.3868 15.8588 16.9466 18.1098 16.2569 19.8341C16.129 20.1538 15.9904 20.4608 15.8409 20.7511C18.8615 19.5428 21.0744 16.7448 21.4451 13.3916L17.481 13.3916ZM21.4451 11.3916C21.0744 8.03837 18.8615 5.24037 15.8409 4.03209C15.9904 4.32243 16.129 4.6294 16.2569 4.94914C16.9466 6.67336 17.3868 8.92443 17.481 11.3916L21.4451 11.3916ZM23.5 12.3916C23.5 18.4667 18.5751 23.3916 12.5 23.3916C6.42487 23.3916 1.5 18.4667 1.5 12.3916C1.5 6.31647 6.42487 1.3916 12.5 1.3916C18.5751 1.3916 23.5 6.31647 23.5 12.3916Z" fill="#1C1F23"/>
</svg>
